<svg width="16" height="16" viewBox="0 0 16 16" fill="none" xmlns="http://www.w3.org/2000/svg">
<g clip-path="url(#clip0_4_36)">
<path d="M1.23438 6.01563C0.615625 6.31875 0.084375 6.59375 0.05625 6.62813C0.003125 6.6875 0 6.80313 0 8C0 9.19688 0.003125 9.3125 0.05625 9.37188C0.10625 9.43438 2.33125 10.5312 2.40625 10.5312C2.48438 10.5312 4.70313 9.43438 4.75938 9.37188C4.80313 9.31563 4.8125 9.24063 4.8125 8.87188V8.4375H5.20313H5.59375V8.87188C5.59375 9.24063 5.60313 9.31563 5.65 9.37188C5.7 9.43438 7.92813 10.5312 8.00313 10.5312C8.07813 10.5312 10.2969 9.43438 10.35 9.37188C10.3969 9.31563 10.4063 9.24063 10.4063 8.87188V8.4375H10.7969H11.1875V8.875C11.1875 9.3 11.1906 9.31875 11.2656 9.39063C11.3625 9.49063 11.4813 9.49063 11.5781 9.39063L11.6563 9.31563V8.23438C11.6563 7.64063 11.6656 7.15625 11.6813 7.15625C11.6938 7.15938 12.075 7.34063 12.5313 7.55938L13.3594 7.9625L13.3688 8.93438C13.3719 9.46875 13.3719 9.90625 13.3656 9.90625C13.3594 9.90625 13.1563 9.8125 12.9188 9.69688C12.6813 9.58438 12.4438 9.49063 12.3938 9.49063C12.2313 9.49063 12.125 9.71875 12.2281 9.85313C12.2688 9.90625 13.5313 10.5312 13.6 10.5312C13.6781 10.5312 15.8906 9.43438 15.9438 9.37188C15.9969 9.3125 16 9.19688 16 8.00313C16 6.92813 15.9938 6.69063 15.9563 6.6375C15.9125 6.57813 13.675 5.46875 13.5938 5.46875C13.5156 5.46875 11.2969 6.56563 11.2438 6.62813C11.1938 6.6875 11.1875 6.77188 11.1875 7.33125V7.96875H10.7969H10.4063V7.33438C10.4063 6.8375 10.3969 6.6875 10.3625 6.6375C10.3188 6.57813 8.08125 5.46875 8 5.46875C7.92188 5.46875 5.70313 6.56563 5.65 6.62813C5.6 6.6875 5.59375 6.77188 5.59375 7.33125V7.96875H5.20313H4.8125V7.34063C4.8125 6.94688 4.8 6.69063 4.77813 6.65C4.73125 6.56563 3.5125 5.96875 3.38125 5.96875C3.31563 5.96875 3.26563 5.99375 3.22188 6.05C3.075 6.2375 3.14688 6.325 3.62813 6.56563L4.03438 6.76563L3.22188 7.1625L2.40625 7.55938L1.59063 7.15938L0.775 6.7625L1.67188 6.32813C2.16563 6.0875 2.58125 5.86875 2.59688 5.8375C2.65313 5.73438 2.62813 5.6 2.54375 5.53438C2.49688 5.49688 2.4375 5.46875 2.40938 5.46875C2.38125 5.46875 1.85313 5.71563 1.23438 6.01563ZM8.84063 6.37813L9.63438 6.76563L8.81875 7.1625L8 7.55938L7.18438 7.1625L6.36875 6.76563L7.17813 6.36875C7.62188 6.15 8 5.97813 8.01563 5.98438C8.03438 5.9875 8.40313 6.16563 8.84063 6.37813ZM14.4344 6.37813L15.2281 6.76563L14.4125 7.1625L13.5938 7.55938L12.7813 7.1625L11.9656 6.76563L12.7719 6.36875C13.2156 6.15313 13.5938 5.97813 13.6094 5.98438C13.6281 5.9875 13.9969 6.16563 14.4344 6.37813ZM1.36563 7.57188L2.15625 7.95313V8.93125C2.15625 9.46875 2.14688 9.90313 2.13438 9.89688C2.08438 9.86875 0.66875 9.17813 0.571875 9.1375L0.46875 9.09375V8.12188C0.46875 7.20938 0.471875 7.15 0.525 7.17188C0.553125 7.18125 0.934375 7.3625 1.36563 7.57188ZM4.34375 7.5625V7.96875H4.175C3.975 7.96875 3.82188 8.01875 3.78125 8.09375C3.73125 8.1875 3.74375 8.29375 3.8125 8.36875C3.86875 8.42813 3.9125 8.4375 4.1125 8.4375H4.34688L4.3375 8.76563L4.32813 9.09688L3.49063 9.5C3.03125 9.725 2.64688 9.90625 2.64063 9.90625C2.63125 9.90625 2.62813 9.46875 2.63125 8.93438L2.64063 7.9625L3.46875 7.5625C3.925 7.34063 4.30625 7.15938 4.32188 7.15938C4.33438 7.15625 4.34375 7.3375 4.34375 7.5625ZM6.95938 7.57188L7.75 7.95313V8.93125V9.90625L7.63438 9.85C7.56875 9.81875 7.1875 9.63125 6.79063 9.4375L6.0625 9.08125V8.11563C6.0625 7.20938 6.06563 7.15 6.11563 7.17188C6.14688 7.18125 6.52813 7.3625 6.95938 7.57188ZM9.9375 7.5625V7.96875H9.76875C9.56875 7.96875 9.41563 8.01875 9.375 8.09375C9.325 8.1875 9.3375 8.29375 9.40625 8.36875C9.4625 8.42813 9.50625 8.4375 9.70625 8.4375H9.94063L9.93125 8.76563L9.92188 9.09688L9.08438 9.5C8.625 9.725 8.24063 9.90625 8.23438 9.90625C8.225 9.90625 8.22188 9.46875 8.225 8.93438L8.23438 7.96563L9.0625 7.5625C9.51875 7.34063 9.9 7.15938 9.91563 7.15625C9.92813 7.15625 9.9375 7.3375 9.9375 7.5625ZM15.5313 8.125V9.09063L15.1813 9.25938C14.9875 9.35313 14.6063 9.5375 14.3375 9.66563L13.8438 9.90313V8.92813V7.95313L14.6656 7.55625C15.1156 7.3375 15.4938 7.15938 15.5094 7.15938C15.5219 7.15625 15.5313 7.59063 15.5313 8.125Z" fill="url(#paint0_linear_4_36)"/>
</g>
<defs>
<linearGradient id="paint0_linear_4_36" x1="0" y1="8" x2="16" y2="8" gradientUnits="userSpaceOnUse">
<stop stop-color="#ED4264"/>
<stop offset="1" stop-color="#FABCA3"/>
</linearGradient>
<clipPath id="clip0_4_36">
<rect width="16" height="16" fill="white"/>
</clipPath>
</defs>
</svg>
