<svg width="562" height="240" viewBox="0 0 562 240" fill="none" xmlns="http://www.w3.org/2000/svg">
<g filter="url(#filter0_d_4_58)">
<path d="M268.821 62.708V82.028C268.821 83.96 269.297 85.4473 270.247 86.49C271.198 87.5327 272.593 88.054 274.433 88.054C276.273 88.054 277.684 87.5327 278.665 86.49C279.647 85.4473 280.137 83.96 280.137 82.028V62.708H288.003V81.982C288.003 84.8647 287.39 87.3027 286.163 89.296C284.937 91.2893 283.281 92.792 281.195 93.804C279.141 94.816 276.841 95.322 274.295 95.322C271.75 95.322 269.465 94.8313 267.441 93.85C265.448 92.838 263.869 91.3353 262.703 89.342C261.538 87.318 260.955 84.8647 260.955 81.982V62.708H268.821ZM322.415 95H314.549L301.393 75.082V95H293.527V62.708H301.393L314.549 82.718V62.708H322.415V95ZM347.667 78.44C349.537 78.8387 351.04 79.774 352.175 81.246C353.309 82.6873 353.877 84.3433 353.877 86.214C353.877 88.9127 352.926 91.0593 351.025 92.654C349.154 94.218 346.532 95 343.159 95H328.117V62.708H342.653C345.934 62.708 348.495 63.4593 350.335 64.962C352.205 66.4647 353.141 68.504 353.141 71.08C353.141 72.9813 352.635 74.5607 351.623 75.818C350.641 77.0753 349.323 77.9493 347.667 78.44ZM335.983 75.772H341.135C342.423 75.772 343.404 75.496 344.079 74.944C344.784 74.3613 345.137 73.518 345.137 72.414C345.137 71.31 344.784 70.4667 344.079 69.884C343.404 69.3013 342.423 69.01 341.135 69.01H335.983V75.772ZM341.779 88.652C343.097 88.652 344.109 88.3607 344.815 87.778C345.551 87.1647 345.919 86.2907 345.919 85.156C345.919 84.0213 345.535 83.132 344.769 82.488C344.033 81.844 343.005 81.522 341.687 81.522H335.983V88.652H341.779ZM387.737 78.44C389.608 78.8387 391.11 79.774 392.245 81.246C393.38 82.6873 393.947 84.3433 393.947 86.214C393.947 88.9127 392.996 91.0593 391.095 92.654C389.224 94.218 386.602 95 383.229 95H368.187V62.708H382.723C386.004 62.708 388.565 63.4593 390.405 64.962C392.276 66.4647 393.211 68.504 393.211 71.08C393.211 72.9813 392.705 74.5607 391.693 75.818C390.712 77.0753 389.393 77.9493 387.737 78.44ZM376.053 75.772H381.205C382.493 75.772 383.474 75.496 384.149 74.944C384.854 74.3613 385.207 73.518 385.207 72.414C385.207 71.31 384.854 70.4667 384.149 69.884C383.474 69.3013 382.493 69.01 381.205 69.01H376.053V75.772ZM381.849 88.652C383.168 88.652 384.18 88.3607 384.885 87.778C385.621 87.1647 385.989 86.2907 385.989 85.156C385.989 84.0213 385.606 83.132 384.839 82.488C384.103 81.844 383.076 81.522 381.757 81.522H376.053V88.652H381.849ZM406.375 62.708V95H398.509V62.708H406.375ZM435.306 62.708V69.01H426.75V95H418.884V69.01H410.328V62.708H435.306ZM437.919 78.808C437.919 75.6187 438.609 72.782 439.989 70.298C441.369 67.7833 443.286 65.836 445.739 64.456C448.223 63.0453 451.029 62.34 454.157 62.34C457.991 62.34 461.272 63.352 464.001 65.376C466.731 67.4 468.555 70.16 469.475 73.656H460.827C460.183 72.3067 459.263 71.2793 458.067 70.574C456.902 69.8687 455.568 69.516 454.065 69.516C451.643 69.516 449.68 70.3593 448.177 72.046C446.675 73.7327 445.923 75.9867 445.923 78.808C445.923 81.6293 446.675 83.8833 448.177 85.57C449.68 87.2567 451.643 88.1 454.065 88.1C455.568 88.1 456.902 87.7473 458.067 87.042C459.263 86.3367 460.183 85.3093 460.827 83.96H469.475C468.555 87.456 466.731 90.216 464.001 92.24C461.272 94.2333 457.991 95.23 454.157 95.23C451.029 95.23 448.223 94.54 445.739 93.16C443.286 91.7493 441.369 89.802 439.989 87.318C438.609 84.834 437.919 81.9973 437.919 78.808ZM489.564 95.322C486.528 95.322 483.738 94.6167 481.192 93.206C478.678 91.7953 476.669 89.8327 475.166 87.318C473.694 84.7727 472.958 81.9207 472.958 78.762C472.958 75.6033 473.694 72.7667 475.166 70.252C476.669 67.7373 478.678 65.7747 481.192 64.364C483.738 62.9533 486.528 62.248 489.564 62.248C492.6 62.248 495.376 62.9533 497.89 64.364C500.436 65.7747 502.429 67.7373 503.87 70.252C505.342 72.7667 506.078 75.6033 506.078 78.762C506.078 81.9207 505.342 84.7727 503.87 87.318C502.398 89.8327 500.405 91.7953 497.89 93.206C495.376 94.6167 492.6 95.322 489.564 95.322ZM489.564 88.146C492.14 88.146 494.195 87.2873 495.728 85.57C497.292 83.8527 498.074 81.5833 498.074 78.762C498.074 75.91 497.292 73.6407 495.728 71.954C494.195 70.2367 492.14 69.378 489.564 69.378C486.958 69.378 484.872 70.2213 483.308 71.908C481.775 73.5947 481.008 75.8793 481.008 78.762C481.008 81.614 481.775 83.8987 483.308 85.616C484.872 87.3027 486.958 88.146 489.564 88.146ZM518.321 62.708V95H510.455V62.708H518.321ZM552.909 95H545.043L531.887 75.082V95H524.021V62.708H531.887L545.043 82.718V62.708H552.909V95Z" fill="white"/>
<path d="M264.49 145.28C264.49 137.653 266.14 130.87 269.44 124.93C272.74 118.917 277.324 114.26 283.19 110.96C289.13 107.587 295.84 105.9 303.32 105.9C312.487 105.9 320.334 108.32 326.86 113.16C333.387 118 337.75 124.6 339.95 132.96H319.27C317.73 129.733 315.53 127.277 312.67 125.59C309.884 123.903 306.694 123.06 303.1 123.06C297.307 123.06 292.614 125.077 289.02 129.11C285.427 133.143 283.63 138.533 283.63 145.28C283.63 152.027 285.427 157.417 289.02 161.45C292.614 165.483 297.307 167.5 303.1 167.5C306.694 167.5 309.884 166.657 312.67 164.97C315.53 163.283 317.73 160.827 319.27 157.6H339.95C337.75 165.96 333.387 172.56 326.86 177.4C320.334 182.167 312.487 184.55 303.32 184.55C295.84 184.55 289.13 182.9 283.19 179.6C277.324 176.227 272.74 171.57 269.44 165.63C266.14 159.69 264.49 152.907 264.49 145.28ZM370.279 169.48H394.919V184H351.469V106.78H370.279V169.48ZM422.371 106.78V152.98C422.371 157.6 423.508 161.157 425.781 163.65C428.055 166.143 431.391 167.39 435.791 167.39C440.191 167.39 443.565 166.143 445.911 163.65C448.258 161.157 449.431 157.6 449.431 152.98V106.78H468.241V152.87C468.241 159.763 466.775 165.593 463.841 170.36C460.908 175.127 456.948 178.72 451.961 181.14C447.048 183.56 441.548 184.77 435.461 184.77C429.375 184.77 423.911 183.597 419.071 181.25C414.305 178.83 410.528 175.237 407.741 170.47C404.955 165.63 403.561 159.763 403.561 152.87V106.78H422.371ZM528.2 144.4C532.673 145.353 536.267 147.59 538.98 151.11C541.693 154.557 543.05 158.517 543.05 162.99C543.05 169.443 540.777 174.577 536.23 178.39C531.757 182.13 525.487 184 517.42 184H481.45V106.78H516.21C524.057 106.78 530.18 108.577 534.58 112.17C539.053 115.763 541.29 120.64 541.29 126.8C541.29 131.347 540.08 135.123 537.66 138.13C535.313 141.137 532.16 143.227 528.2 144.4ZM500.26 138.02H512.58C515.66 138.02 518.007 137.36 519.62 136.04C521.307 134.647 522.15 132.63 522.15 129.99C522.15 127.35 521.307 125.333 519.62 123.94C518.007 122.547 515.66 121.85 512.58 121.85H500.26V138.02ZM514.12 168.82C517.273 168.82 519.693 168.123 521.38 166.73C523.14 165.263 524.02 163.173 524.02 160.46C524.02 157.747 523.103 155.62 521.27 154.08C519.51 152.54 517.053 151.77 513.9 151.77H500.26V168.82H514.12Z" fill="white"/>
</g>
<g clip-path="url(#clip0_4_58)">
<path d="M18.5156 90.2344C9.23437 94.7813 1.26562 98.9063 0.84375 99.4219C0.046875 100.313 0 102.047 0 120C0 137.953 0.046875 139.688 0.84375 140.578C1.59375 141.516 34.9687 157.969 36.0937 157.969C37.2656 157.969 70.5469 141.516 71.3906 140.578C72.0469 139.734 72.1875 138.609 72.1875 133.078V126.563H78.0469H83.9062V133.078C83.9062 138.609 84.0469 139.734 84.75 140.578C85.5 141.516 118.922 157.969 120.047 157.969C121.172 157.969 154.453 141.516 155.25 140.578C155.953 139.734 156.094 138.609 156.094 133.078V126.563H161.953H167.812V133.125C167.812 139.5 167.859 139.781 168.984 140.859C170.437 142.359 172.219 142.359 173.672 140.859L174.844 139.734V123.516C174.844 114.609 174.984 107.344 175.219 107.344C175.406 107.391 181.125 110.109 187.969 113.391L200.391 119.438L200.531 134.016C200.578 142.031 200.578 148.594 200.484 148.594C200.391 148.594 197.344 147.188 193.781 145.453C190.219 143.766 186.656 142.359 185.906 142.359C183.469 142.359 181.875 145.781 183.422 147.797C184.031 148.594 202.969 157.969 204 157.969C205.172 157.969 238.359 141.516 239.156 140.578C239.953 139.688 240 137.953 240 120.047C240 103.922 239.906 100.359 239.344 99.5625C238.687 98.6719 205.125 82.0313 203.906 82.0313C202.734 82.0313 169.453 98.4844 168.656 99.4219C167.906 100.313 167.812 101.578 167.812 109.969V119.531H161.953H156.094V110.016C156.094 102.563 155.953 100.313 155.437 99.5625C154.781 98.6719 121.219 82.0313 120 82.0313C118.828 82.0313 85.5469 98.4844 84.75 99.4219C84 100.313 83.9062 101.578 83.9062 109.969V119.531H78.0469H72.1875V110.109C72.1875 104.203 72 100.359 71.6719 99.75C70.9687 98.4844 52.6875 89.5313 50.7187 89.5313C49.7344 89.5313 48.9844 89.9063 48.3281 90.75C46.125 93.5625 47.2031 94.875 54.4219 98.4844L60.5156 101.484L48.3281 107.438L36.0937 113.391L23.8594 107.391L11.625 101.438L25.0781 94.9219C32.4844 91.3125 38.7187 88.0313 38.9531 87.5625C39.7969 86.0156 39.4219 84 38.1562 83.0156C37.4531 82.4531 36.5625 82.0313 36.1406 82.0313C35.7187 82.0313 27.7969 85.7344 18.5156 90.2344ZM132.609 95.6719L144.516 101.484L132.281 107.438L120 113.391L107.766 107.438L95.5312 101.484L107.672 95.5313C114.328 92.25 120 89.6719 120.234 89.7656C120.516 89.8125 126.047 92.4844 132.609 95.6719ZM216.516 95.6719L228.422 101.484L216.187 107.438L203.906 113.391L191.719 107.438L179.484 101.484L191.578 95.5313C198.234 92.2969 203.906 89.6719 204.141 89.7656C204.422 89.8125 209.953 92.4844 216.516 95.6719ZM20.4844 113.578L32.3437 119.297V133.969C32.3437 142.031 32.2031 148.547 32.0156 148.453C31.2656 148.031 10.0312 137.672 8.57812 137.063L7.03125 136.406V121.828C7.03125 108.141 7.07812 107.25 7.875 107.578C8.29687 107.719 14.0156 110.438 20.4844 113.578ZM65.1562 113.438V119.531H62.625C59.625 119.531 57.3281 120.281 56.7187 121.406C55.9687 122.813 56.1562 124.406 57.1875 125.531C58.0312 126.422 58.6875 126.563 61.6875 126.563H65.2031L65.0625 131.484L64.9219 136.453L52.3594 142.5C45.4687 145.875 39.7031 148.594 39.6094 148.594C39.4687 148.594 39.4219 142.031 39.4687 134.016L39.6094 119.438L52.0312 113.438C58.875 110.109 64.5937 107.391 64.8281 107.391C65.0156 107.344 65.1562 110.063 65.1562 113.438ZM104.391 113.578L116.25 119.297V133.969V148.594L114.516 147.75C113.531 147.281 107.812 144.469 101.859 141.563L90.9375 136.219V121.734C90.9375 108.141 90.9844 107.25 91.7344 107.578C92.2031 107.719 97.9219 110.438 104.391 113.578ZM149.062 113.438V119.531H146.531C143.531 119.531 141.234 120.281 140.625 121.406C139.875 122.813 140.062 124.406 141.094 125.531C141.937 126.422 142.594 126.563 145.594 126.563H149.109L148.969 131.484L148.828 136.453L136.266 142.5C129.375 145.875 123.609 148.594 123.516 148.594C123.375 148.594 123.328 142.031 123.375 134.016L123.516 119.484L135.937 113.438C142.781 110.109 148.5 107.391 148.734 107.344C148.922 107.344 149.062 110.063 149.062 113.438ZM232.969 121.875V136.359L227.719 138.891C224.812 140.297 219.094 143.063 215.062 144.984L207.656 148.547V133.922V119.297L219.984 113.344C226.734 110.063 232.406 107.391 232.641 107.391C232.828 107.344 232.969 113.859 232.969 121.875Z" fill="url(#paint0_linear_4_58)"/>
</g>
<defs>
<filter id="filter0_d_4_58" x="256.955" y="62.248" width="299.954" height="130.522" filterUnits="userSpaceOnUse" color-interpolation-filters="sRGB">
<feFlood flood-opacity="0" result="BackgroundImageFix"/>
<feColorMatrix in="SourceAlpha" type="matrix" values="0 0 0 0 0 0 0 0 0 0 0 0 0 0 0 0 0 0 127 0" result="hardAlpha"/>
<feOffset dy="4"/>
<feGaussianBlur stdDeviation="2"/>
<feComposite in2="hardAlpha" operator="out"/>
<feColorMatrix type="matrix" values="0 0 0 0 0 0 0 0 0 0 0 0 0 0 0 0 0 0 0.25 0"/>
<feBlend mode="normal" in2="BackgroundImageFix" result="effect1_dropShadow_4_58"/>
<feBlend mode="normal" in="SourceGraphic" in2="effect1_dropShadow_4_58" result="shape"/>
</filter>
<linearGradient id="paint0_linear_4_58" x1="0" y1="120" x2="240" y2="120" gradientUnits="userSpaceOnUse">
<stop stop-color="#ED4264"/>
<stop offset="1" stop-color="#FABCA3"/>
</linearGradient>
<clipPath id="clip0_4_58">
<rect width="240" height="240" fill="white"/>
</clipPath>
</defs>
</svg>
