<svg width="240" height="306" viewBox="0 0 240 306" fill="none" xmlns="http://www.w3.org/2000/svg">
<g filter="url(#filter0_i_4_33)">
<path d="M11.8601 175.728V190.848C11.8601 192.36 12.2321 193.524 12.9761 194.34C13.7201 195.156 14.8121 195.564 16.2521 195.564C17.6921 195.564 18.7961 195.156 19.5641 194.34C20.3321 193.524 20.7161 192.36 20.7161 190.848V175.728H26.8721V190.812C26.8721 193.068 26.3921 194.976 25.4321 196.536C24.4721 198.096 23.1761 199.272 21.5441 200.064C19.9361 200.856 18.1361 201.252 16.1441 201.252C14.1521 201.252 12.3641 200.868 10.7801 200.1C9.22008 199.308 7.98408 198.132 7.07208 196.572C6.16008 194.988 5.70408 193.068 5.70408 190.812V175.728H11.8601ZM53.8029 201H47.6469L37.3509 185.412V201H31.1949V175.728H37.3509L47.6469 191.388V175.728H53.8029V201ZM73.5652 188.04C75.0292 188.352 76.2052 189.084 77.0932 190.236C77.9812 191.364 78.4252 192.66 78.4252 194.124C78.4252 196.236 77.6812 197.916 76.1932 199.164C74.7292 200.388 72.6772 201 70.0372 201H58.2652V175.728H69.6412C72.2092 175.728 74.2132 176.316 75.6532 177.492C77.1172 178.668 77.8492 180.264 77.8492 182.28C77.8492 183.768 77.4532 185.004 76.6612 185.988C75.8932 186.972 74.8612 187.656 73.5652 188.04ZM64.4212 185.952H68.4532C69.4612 185.952 70.2292 185.736 70.7572 185.304C71.3092 184.848 71.5852 184.188 71.5852 183.324C71.5852 182.46 71.3092 181.8 70.7572 181.344C70.2292 180.888 69.4612 180.66 68.4532 180.66H64.4212V185.952ZM68.9572 196.032C69.9892 196.032 70.7812 195.804 71.3332 195.348C71.9092 194.868 72.1972 194.184 72.1972 193.296C72.1972 192.408 71.8972 191.712 71.2972 191.208C70.7212 190.704 69.9172 190.452 68.8852 190.452H64.4212V196.032H68.9572ZM104.925 188.04C106.389 188.352 107.565 189.084 108.453 190.236C109.341 191.364 109.785 192.66 109.785 194.124C109.785 196.236 109.041 197.916 107.553 199.164C106.089 200.388 104.037 201 101.397 201H89.6246V175.728H101.001C103.569 175.728 105.573 176.316 107.013 177.492C108.477 178.668 109.209 180.264 109.209 182.28C109.209 183.768 108.813 185.004 108.021 185.988C107.253 186.972 106.221 187.656 104.925 188.04ZM95.7806 185.952H99.8126C100.821 185.952 101.589 185.736 102.117 185.304C102.669 184.848 102.945 184.188 102.945 183.324C102.945 182.46 102.669 181.8 102.117 181.344C101.589 180.888 100.821 180.66 99.8126 180.66H95.7806V185.952ZM100.317 196.032C101.349 196.032 102.141 195.804 102.693 195.348C103.269 194.868 103.557 194.184 103.557 193.296C103.557 192.408 103.257 191.712 102.657 191.208C102.081 190.704 101.277 190.452 100.245 190.452H95.7806V196.032H100.317ZM119.511 175.728V201H113.355V175.728H119.511ZM142.152 175.728V180.66H135.456V201H129.3V180.66H122.604V175.728H142.152ZM144.198 188.328C144.198 185.832 144.738 183.612 145.818 181.668C146.898 179.7 148.398 178.176 150.318 177.096C152.262 175.992 154.458 175.44 156.906 175.44C159.906 175.44 162.474 176.232 164.61 177.816C166.746 179.4 168.174 181.56 168.894 184.296H162.126C161.622 183.24 160.902 182.436 159.966 181.884C159.054 181.332 158.01 181.056 156.834 181.056C154.938 181.056 153.402 181.716 152.226 183.036C151.05 184.356 150.462 186.12 150.462 188.328C150.462 190.536 151.05 192.3 152.226 193.62C153.402 194.94 154.938 195.6 156.834 195.6C158.01 195.6 159.054 195.324 159.966 194.772C160.902 194.22 161.622 193.416 162.126 192.36H168.894C168.174 195.096 166.746 197.256 164.61 198.84C162.474 200.4 159.906 201.18 156.906 201.18C154.458 201.18 152.262 200.64 150.318 199.56C148.398 198.456 146.898 196.932 145.818 194.988C144.738 193.044 144.198 190.824 144.198 188.328ZM184.616 201.252C182.24 201.252 180.056 200.7 178.064 199.596C176.096 198.492 174.524 196.956 173.348 194.988C172.196 192.996 171.62 190.764 171.62 188.292C171.62 185.82 172.196 183.6 173.348 181.632C174.524 179.664 176.096 178.128 178.064 177.024C180.056 175.92 182.24 175.368 184.616 175.368C186.992 175.368 189.164 175.92 191.132 177.024C193.124 178.128 194.684 179.664 195.812 181.632C196.964 183.6 197.54 185.82 197.54 188.292C197.54 190.764 196.964 192.996 195.812 194.988C194.66 196.956 193.1 198.492 191.132 199.596C189.164 200.7 186.992 201.252 184.616 201.252ZM184.616 195.636C186.632 195.636 188.24 194.964 189.44 193.62C190.664 192.276 191.276 190.5 191.276 188.292C191.276 186.06 190.664 184.284 189.44 182.964C188.24 181.62 186.632 180.948 184.616 180.948C182.576 180.948 180.944 181.608 179.72 182.928C178.52 184.248 177.92 186.036 177.92 188.292C177.92 190.524 178.52 192.312 179.72 193.656C180.944 194.976 182.576 195.636 184.616 195.636ZM207.12 175.728V201H200.964V175.728H207.12ZM234.19 201H228.034L217.738 185.412V201H211.582V175.728H217.738L228.034 191.388V175.728H234.19V201Z" fill="#333333"/>
<path d="M8.39228 240.024C8.39228 233.923 9.71228 228.496 12.3523 223.744C14.9923 218.933 18.6589 215.208 23.3523 212.568C28.1043 209.869 33.4723 208.52 39.4563 208.52C46.7896 208.52 53.067 210.456 58.2883 214.328C63.5096 218.2 67.0003 223.48 68.7603 230.168H52.2163C50.9843 227.587 49.2243 225.621 46.9363 224.272C44.707 222.923 42.1549 222.248 39.2803 222.248C34.6456 222.248 30.8909 223.861 28.0163 227.088C25.1416 230.315 23.7043 234.627 23.7043 240.024C23.7043 245.421 25.1416 249.733 28.0163 252.96C30.8909 256.187 34.6456 257.8 39.2803 257.8C42.1549 257.8 44.707 257.125 46.9363 255.776C49.2243 254.427 50.9843 252.461 52.2163 249.88H68.7603C67.0003 256.568 63.5096 261.848 58.2883 265.72C53.067 269.533 46.7896 271.44 39.4563 271.44C33.4723 271.44 28.1043 270.12 23.3523 267.48C18.6589 264.781 14.9923 261.056 12.3523 256.304C9.71228 251.552 8.39228 246.125 8.39228 240.024ZM93.0235 259.384H112.736V271H77.9755V209.224H93.0235V259.384ZM134.697 209.224V246.184C134.697 249.88 135.606 252.725 137.425 254.72C139.244 256.715 141.913 257.712 145.433 257.712C148.953 257.712 151.652 256.715 153.529 254.72C155.406 252.725 156.345 249.88 156.345 246.184V209.224H171.393V246.096C171.393 251.611 170.22 256.275 167.873 260.088C165.526 263.901 162.358 266.776 158.369 268.712C154.438 270.648 150.038 271.616 145.169 271.616C140.3 271.616 135.929 270.677 132.057 268.8C128.244 266.864 125.222 263.989 122.993 260.176C120.764 256.304 119.649 251.611 119.649 246.096V209.224H134.697ZM219.36 239.32C222.939 240.083 225.813 241.872 227.984 244.688C230.155 247.445 231.24 250.613 231.24 254.192C231.24 259.355 229.421 263.461 225.784 266.512C222.205 269.504 217.189 271 210.736 271H181.96V209.224H209.768C216.045 209.224 220.944 210.661 224.464 213.536C228.043 216.411 229.832 220.312 229.832 225.24C229.832 228.877 228.864 231.899 226.928 234.304C225.051 236.709 222.528 238.381 219.36 239.32ZM197.008 234.216H206.864C209.328 234.216 211.205 233.688 212.496 232.632C213.845 231.517 214.52 229.904 214.52 227.792C214.52 225.68 213.845 224.067 212.496 222.952C211.205 221.837 209.328 221.28 206.864 221.28H197.008V234.216ZM208.096 258.856C210.619 258.856 212.555 258.299 213.904 257.184C215.312 256.011 216.016 254.339 216.016 252.168C216.016 249.997 215.283 248.296 213.816 247.064C212.408 245.832 210.443 245.216 207.92 245.216H197.008V258.856H208.096Z" fill="#333333"/>
<g clip-path="url(#clip0_4_33)">
<path d="M18.5156 90.2344C9.23437 94.7812 1.26562 98.9062 0.84375 99.4219C0.046875 100.312 0 102.047 0 120C0 137.953 0.046875 139.687 0.84375 140.578C1.59375 141.516 34.9687 157.969 36.0937 157.969C37.2656 157.969 70.5469 141.516 71.3906 140.578C72.0469 139.734 72.1875 138.609 72.1875 133.078V126.562H78.0469H83.9062V133.078C83.9062 138.609 84.0469 139.734 84.75 140.578C85.5 141.516 118.922 157.969 120.047 157.969C121.172 157.969 154.453 141.516 155.25 140.578C155.953 139.734 156.094 138.609 156.094 133.078V126.562H161.953H167.812V133.125C167.812 139.5 167.859 139.781 168.984 140.859C170.437 142.359 172.219 142.359 173.672 140.859L174.844 139.734V123.516C174.844 114.609 174.984 107.344 175.219 107.344C175.406 107.391 181.125 110.109 187.969 113.391L200.391 119.437L200.531 134.016C200.578 142.031 200.578 148.594 200.484 148.594C200.391 148.594 197.344 147.187 193.781 145.453C190.219 143.766 186.656 142.359 185.906 142.359C183.469 142.359 181.875 145.781 183.422 147.797C184.031 148.594 202.969 157.969 204 157.969C205.172 157.969 238.359 141.516 239.156 140.578C239.953 139.687 240 137.953 240 120.047C240 103.922 239.906 100.359 239.344 99.5625C238.687 98.6719 205.125 82.0312 203.906 82.0312C202.734 82.0312 169.453 98.4844 168.656 99.4219C167.906 100.312 167.812 101.578 167.812 109.969V119.531H161.953H156.094V110.016C156.094 102.562 155.953 100.312 155.437 99.5625C154.781 98.6719 121.219 82.0312 120 82.0312C118.828 82.0312 85.5469 98.4844 84.75 99.4219C84 100.312 83.9062 101.578 83.9062 109.969V119.531H78.0469H72.1875V110.109C72.1875 104.203 72 100.359 71.6719 99.75C70.9687 98.4844 52.6875 89.5312 50.7187 89.5312C49.7344 89.5312 48.9844 89.9062 48.3281 90.75C46.125 93.5625 47.2031 94.875 54.4219 98.4844L60.5156 101.484L48.3281 107.437L36.0937 113.391L23.8594 107.391L11.625 101.437L25.0781 94.9219C32.4844 91.3125 38.7187 88.0312 38.9531 87.5625C39.7969 86.0156 39.4219 84 38.1562 83.0156C37.4531 82.4531 36.5625 82.0312 36.1406 82.0312C35.7187 82.0312 27.7969 85.7344 18.5156 90.2344ZM132.609 95.6719L144.516 101.484L132.281 107.437L120 113.391L107.766 107.437L95.5312 101.484L107.672 95.5312C114.328 92.25 120 89.6719 120.234 89.7656C120.516 89.8125 126.047 92.4844 132.609 95.6719ZM216.516 95.6719L228.422 101.484L216.187 107.437L203.906 113.391L191.719 107.437L179.484 101.484L191.578 95.5312C198.234 92.2969 203.906 89.6719 204.141 89.7656C204.422 89.8125 209.953 92.4844 216.516 95.6719ZM20.4844 113.578L32.3437 119.297V133.969C32.3437 142.031 32.2031 148.547 32.0156 148.453C31.2656 148.031 10.0312 137.672 8.57812 137.062L7.03125 136.406V121.828C7.03125 108.141 7.07812 107.25 7.875 107.578C8.29687 107.719 14.0156 110.437 20.4844 113.578ZM65.1562 113.437V119.531H62.625C59.625 119.531 57.3281 120.281 56.7187 121.406C55.9687 122.812 56.1562 124.406 57.1875 125.531C58.0312 126.422 58.6875 126.562 61.6875 126.562H65.2031L65.0625 131.484L64.9219 136.453L52.3594 142.5C45.4687 145.875 39.7031 148.594 39.6094 148.594C39.4687 148.594 39.4219 142.031 39.4687 134.016L39.6094 119.437L52.0312 113.437C58.875 110.109 64.5937 107.391 64.8281 107.391C65.0156 107.344 65.1562 110.062 65.1562 113.437ZM104.391 113.578L116.25 119.297V133.969V148.594L114.516 147.75C113.531 147.281 107.812 144.469 101.859 141.562L90.9375 136.219V121.734C90.9375 108.141 90.9844 107.25 91.7344 107.578C92.2031 107.719 97.9219 110.437 104.391 113.578ZM149.062 113.437V119.531H146.531C143.531 119.531 141.234 120.281 140.625 121.406C139.875 122.812 140.062 124.406 141.094 125.531C141.937 126.422 142.594 126.562 145.594 126.562H149.109L148.969 131.484L148.828 136.453L136.266 142.5C129.375 145.875 123.609 148.594 123.516 148.594C123.375 148.594 123.328 142.031 123.375 134.016L123.516 119.484L135.937 113.437C142.781 110.109 148.5 107.391 148.734 107.344C148.922 107.344 149.062 110.062 149.062 113.437ZM232.969 121.875V136.359L227.719 138.891C224.812 140.297 219.094 143.062 215.062 144.984L207.656 148.547V133.922V119.297L219.984 113.344C226.734 110.062 232.406 107.391 232.641 107.391C232.828 107.344 232.969 113.859 232.969 121.875Z" fill="url(#paint0_linear_4_33)"/>
</g>
</g>
<defs>
<filter id="filter0_i_4_33" x="0" y="0" width="240" height="275.616" filterUnits="userSpaceOnUse" color-interpolation-filters="sRGB">
<feFlood flood-opacity="0" result="BackgroundImageFix"/>
<feBlend mode="normal" in="SourceGraphic" in2="BackgroundImageFix" result="shape"/>
<feColorMatrix in="SourceAlpha" type="matrix" values="0 0 0 0 0 0 0 0 0 0 0 0 0 0 0 0 0 0 127 0" result="hardAlpha"/>
<feOffset dy="4"/>
<feGaussianBlur stdDeviation="2"/>
<feComposite in2="hardAlpha" operator="arithmetic" k2="-1" k3="1"/>
<feColorMatrix type="matrix" values="0 0 0 0 0 0 0 0 0 0 0 0 0 0 0 0 0 0 0.25 0"/>
<feBlend mode="normal" in2="shape" result="effect1_innerShadow_4_33"/>
</filter>
<linearGradient id="paint0_linear_4_33" x1="0" y1="120" x2="240" y2="120" gradientUnits="userSpaceOnUse">
<stop stop-color="#ED4264"/>
<stop offset="1" stop-color="#FABCA3"/>
</linearGradient>
<clipPath id="clip0_4_33">
<rect width="240" height="240" fill="white"/>
</clipPath>
</defs>
</svg>
